<svg width="24" height="24" viewBox="0 0 24 24" fill="none" xmlns="http://www.w3.org/2000/svg">
<path fill-rule="evenodd" clip-rule="evenodd" d="M18.3003 3.31081C18.5221 3.21892 18.7599 3.17163 19 3.17163C19.2401 3.17163 19.4779 3.21892 19.6997 3.31081C19.9215 3.4027 20.1231 3.53738 20.2929 3.70716C20.4627 3.87695 20.5974 4.07852 20.6892 4.30035C20.7811 4.52218 20.8284 4.75994 20.8284 5.00006C20.8284 5.24017 20.7811 5.47793 20.6892 5.69977C20.5974 5.9216 20.4627 6.12317 20.2929 6.29295L6.98067 19.6052L3.42521 20.5748L4.39488 17.0194L17.7071 3.70716C17.8769 3.53738 18.0784 3.4027 18.3003 3.31081ZM19 1.17163C18.4972 1.17163 17.9994 1.27066 17.5349 1.46305C17.0704 1.65545 16.6484 1.93745 16.2929 2.29295L2.79289 15.793C2.66983 15.916 2.58102 16.069 2.53523 16.2369L1.03523 21.7369C0.940807 22.0832 1.03914 22.4534 1.29289 22.7072C1.54664 22.9609 1.9169 23.0592 2.26311 22.9648L7.76311 21.4648C7.931 21.419 8.08404 21.3302 8.2071 21.2072L21.7071 7.70716C22.0626 7.35166 22.3446 6.92962 22.537 6.46513C22.7294 6.00064 22.8284 5.50281 22.8284 5.00006C22.8284 4.4973 22.7294 3.99947 22.537 3.53498C22.3446 3.07049 22.0626 2.64845 21.7071 2.29295C21.3516 1.93745 20.9296 1.65545 20.4651 1.46305C20.0006 1.27066 19.5027 1.17163 19 1.17163Z" fill="#202020"/>
</svg>
